<svg width="35" height="35" viewBox="0 0 35 35" fill="none" xmlns="http://www.w3.org/2000/svg">
<path d="M26.5642 24.8432C26.5642 24.8432 32.4628 17.2574 25.8514 8.99738" stroke="#FEB702" stroke-width="2" stroke-miterlimit="10" stroke-linecap="round"/>
<path d="M28.6792 25.204L23.2341 27.7219C23.2341 27.7219 25.1144 25.5073 25.8121 22.7021L26.4819 24.4337L26.7217 24.6642L28.6795 25.2041L28.6792 25.204Z" fill="#FEB702" stroke="#FEB702" stroke-width="2" stroke-linecap="round" stroke-linejoin="round"/>
<path d="M8.13408 11.1607C8.13408 11.1607 2.23543 18.7465 8.84688 27.0065" stroke="#FEB702" stroke-width="2" stroke-miterlimit="10" stroke-linecap="round"/>
<path d="M6.01909 10.7999L11.4641 8.28198C11.4641 8.28198 9.58384 10.4966 8.88612 13.3018L8.21637 11.5702L7.97653 11.3397L6.01871 10.7998L6.01909 10.7999Z" fill="#FEB702" stroke="#FEB702" stroke-width="2" stroke-linecap="round" stroke-linejoin="round"/>
<path d="M22.9676 20.9127C22.8064 20.8886 22.644 20.8656 22.4851 20.8442C21.1586 20.6662 19.3239 20.5715 17.1794 20.5703H17.1385C14.9841 20.5703 13.1398 20.665 11.8048 20.8442C11.6439 20.8659 11.4816 20.8889 11.3223 20.9127L11.2101 20.9294L11.207 20.9772L11.8025 21.1463L11.8116 21.1471L11.8164 21.1465C13.5794 20.9651 15.3725 20.8733 17.1462 20.8733H17.1796C18.941 20.8745 20.7223 20.9665 22.4739 21.1465L22.4832 21.1475L23.0832 20.9772L23.0801 20.9294L22.9679 20.9127H22.9676Z" fill="#FEB702"/>
<path d="M20.2696 16.4946L17.177 14.025L17.1459 14L14.0693 16.5564L11 14.7879L11.0005 19.5361C11.0238 19.6921 11.0475 19.813 11.0707 19.9315C11.0935 20.0478 11.117 20.168 11.1403 20.3231L11.1645 20.485H11.2129L11.3772 19.3819V18.1405L14.0649 19.7321L17.1188 17.2448L20.2182 19.6692L20.2469 19.6526C20.6971 19.3918 21.1645 19.1263 21.6165 18.8695C22.0465 18.6253 22.491 18.373 22.9212 18.1241C22.9233 18.2431 22.9212 18.4839 22.9194 18.7178V18.7275C22.9175 18.9393 22.9156 19.1721 22.9161 19.3891L23.0799 20.4848H23.1283L23.1525 20.3231C23.1759 20.1671 23.1993 20.0474 23.2221 19.9317C23.2451 19.8145 23.2689 19.6931 23.2928 19.5288V14.7887L20.2696 16.4946ZM22.9156 16.2401L20.227 17.7754L17.1488 15.3058L17.1176 15.2807L14.0553 17.8371L11.3772 16.297V15.5186L14.0792 17.1113L17.1469 14.5621L20.2604 17.0485L22.9156 15.5176V16.2401ZM17.1188 15.9047L20.2182 18.3292L20.2469 18.3125C20.6871 18.0574 22.4979 17.0047 22.9219 16.7591C22.9229 16.847 22.9208 16.9968 22.9191 17.1327C22.9175 17.2522 22.9158 17.3769 22.9156 17.482L20.2268 19.1153L17.1487 16.6457L17.1175 16.6206L14.0551 19.177L11.3772 17.6369V16.8004L14.0649 18.3921L17.1188 15.9047Z" fill="#FEB702"/>
<path d="M22.8994 21.6236C22.7399 21.5998 22.5776 21.5767 22.4169 21.5552C21.0907 21.3772 19.256 21.2825 17.111 21.2812H17.0696C14.9154 21.2812 13.0713 21.3759 11.7364 21.5552C11.5742 21.5769 11.4119 21.5999 11.2539 21.6236L11.1418 21.6404L11.1387 21.6881L11.734 21.8571L11.7432 21.8579L11.7479 21.8573C13.5112 21.6761 15.304 21.5841 17.077 21.5841H17.111C18.8722 21.5853 20.6535 21.6772 22.4054 21.8573L22.4147 21.8583L23.0146 21.688L23.0115 21.6402L22.8994 21.6235V21.6236Z" fill="#FEB702"/>
<path d="M14.3475 15.2783L13.9965 14.8555L13.6455 15.2783L13.9965 15.8206L14.3475 15.2783Z" fill="#FEB702"/>
<path d="M20.5672 15.2783L20.2162 14.8555L19.8652 15.2783L20.2162 15.8206L20.5672 15.2783Z" fill="#FEB702"/>
<path d="M17.5736 34.1471C26.7269 34.1471 34.1471 26.7269 34.1471 17.5736C34.1471 8.42024 26.7269 1 17.5736 1C8.42024 1 1 8.42024 1 17.5736C1 26.7269 8.42024 34.1471 17.5736 34.1471Z" stroke="#3F3F3F" stroke-width="1.15174" stroke-miterlimit="10"/>
</svg>
